# xmcd CD database file
#
# Track frame offsets:
#	150
#	11202
#	23955
#
# Disc length: 624 seconds
#
# Revision: 5
# Processed by: cddbd v1.5.2PL0 Copyright (c) Steve Scherf et al.
# Submitted via: CDex 1.79
#
DISCID=1d026e03
DTITLE=Texas Is the Reason - Texas Is the Reason CDEp
DYEAR=1995
DGENRE=Rock
TTITLE0=If It's Here When We Get Back It's Ours
TTITLE1=Dressing Cold
TTITLE2=Antique
EXTD=YEAR: 1995
EXTT0=
EXTT1=
EXTT2=
PLAYORDER=
